<svg xmlns="http://www.w3.org/2000/svg" xml:space="preserve" width="512" height="512"><path fill="#392816" stroke="#704f2b" stroke-miterlimit="50" stroke-width="20.331" d="M10.166 10.166h491.669v491.669H10.166z"/><path fill="url(#pattern)" d="M0 0h512v512H0Z"/><path d="M145.42 56.802c-14.066 3.21-26.072 15.788-29.72 33.018-.999 4.9-.998 15.008.068 19.986 2.398 11.716 10.593 23.739 19.322 28.486 20.388 11.104 42.175 2.605 52.036-20.216l2.865-6.662V99.468c0-11.793 0-12.023-2.066-16.924-5.663-13.708-15.391-22.59-27.984-25.653a31.6 31.6 0 0 0-14.52-.089m210.474 83.329c-24.852.536-41.576 1.302-43.042 1.991-1 .46-2.398 1.685-3.131 2.834-2.998 4.365-2.465 9.725 1.466 14.09l2.198 2.45 46.906-.23c36.579-.153 47.24-.46 48.372-1.225 3.332-2.144 4.531-8.653 2.466-13.63-2-4.901-2.733-4.978-27.851-5.744-12.526-.306-24.785-.613-27.384-.536m-164.837 3.829c-4.664.765-13.593 4.594-28.384 12.099-19.056 9.648-23.453 13.172-30.449 23.97-4.797 7.504-7.795 13.63-12.326 25.27-5.33 13.63-3.198 12.942-17.523 5.743-21.12-10.49-26.784-12.865-30.982-12.865-10.86 0-18.255 12.712-14.324 24.658 2.332 7.198 3.597 8.194 26.984 19.91 17.123 8.577 33.713 16.004 37.045 16.464 4.863.69 10.26-1.608 13.991-5.896 3.865-4.442 6.663-10.261 12.593-26.42 4.997-13.63 8.529-21.824 9.328-21.824.667 0 3.065 4.288 9.86 17.23 9.129 17.383 25.652 57.204 24.32 58.582-.267.306-4.997 4.594-10.527 9.572-16.324 14.78-24.252 24.429-27.384 33.235-2.199 6.05-2.132 16.234.066 28.717 4.065 23.05 19.589 81.861 24.52 92.812 1.332 2.91 5.93 7.811 8.728 9.113 5.796 2.833 13.659 1.99 18.39-1.991 3.464-2.91 6.395-8.194 7.394-13.402 1.066-5.437.334-9.265-6.062-32.851-11.927-43.726-16.99-64.939-15.991-67.083.6-1.302 9.328-9.495 16.657-15.698 6.396-5.437 22.72-18.073 22.92-17.843.066.153.866 6.663 1.665 14.474 3.998 37.982 8.728 51.383 29.85 83.929 13.658 20.982 31.782 43.802 38.511 48.244 2.865 1.914 3.997 2.22 8.328 2.22 5.73 0 7.796-1.071 12.46-5.972 3.53-3.753 5.13-7.045 6.129-12.942 1.466-8.04-.866-13.478-10.994-25.883-13.992-17.154-28.982-38.978-35.845-52.303-6.796-13.094-8.595-21.901-11.727-57.97-3.131-35.455-5.73-50.158-12.393-69.38-3.264-9.572-12.792-32.086-16.723-39.59-1.266-2.45-2.2-4.594-2-4.824.4-.46 7.397 2.297 14.326 5.666l5.53 2.681 5.797 8.883c3.198 4.901 9.994 15.698 15.125 24.045 10.993 17.996 13.792 21.519 18.522 23.127 4.264 1.455 5.996 1.455 10.394-.076 4.663-1.532 8.861-6.28 9.927-11.18.933-4.29 1.067-11.258.2-13.785-.866-2.45-13.326-22.973-23.386-38.518-11.927-18.302-14.925-21.596-24.186-26.803-11.46-6.433-26.918-11.793-42.842-14.933-8.395-1.685-27.25-1.99-35.512-.612m143.45 37.37-1.733 2.067c-4.33 5.437-4.33 10.338 0 15.699l1.732 2.144h94.745l1.732-2.144c3.998-4.901 4.264-9.113 1-14.09l-2.2-3.293-47.637-.23zm26.05 40.433c-4.197.766-6.062 1.914-7.661 4.977-2.265 4.288-1.533 8.96 2.198 13.325l2.066 2.527 31.315-.077c42.508-.077 62.23-.765 64.229-2.22 5.397-4.059 3.864-15.546-2.399-17.614-2.865-.919-84.55-1.76-89.747-.918" style="fill:#0f0;stroke-width:2.67863;stroke-linecap:round;stroke-linejoin:round"/></svg>