<svg xmlns="http://www.w3.org/2000/svg" xml:space="preserve" width="512" height="512"><path fill="#392816" stroke="#704f2b" stroke-miterlimit="50" stroke-width="20.331" d="M10.166 10.166h491.669v491.669H10.166z"/><path d="M255.889 56.02a.58.58 0 0 0-.444.058c-.488.323-40.35 69.302-40.549 70.168-.07.305.065.627.3.715s6.592-5.15 14.128-11.639 14.009-12.047 14.385-12.351c.643-.52.686 3.274.686 63.078v41.447a50 50 0 0 0-15.586 6.602l-28.754-28.752c-34.77-34.768-44.187-44.394-43.631-44.602.39-.146 8.677-.826 18.418-1.51 16.427-1.152 19.432-1.547 18.088-2.379-1.203-.743-78.396-21.124-78.733-20.787-.393.394 20.278 78.221 20.955 78.899.828.828 1.212-2.251 2.45-19.697.707-9.976 1.319-18.177 1.357-18.223.038-.047 19.83 19.678 43.984 43.832l29.955 29.957a50 50 0 0 0-5.505 13.96H102.377l.81-.905c.447-.5 6.033-6.953 12.413-14.342 7.826-9.064 11.466-13.567 11.191-13.842s-.716-.245-1.357.094c-2.943 1.554-68.748 39.637-69.155 40.021-.269.255-.36.657-.2.897.322.488 69.3 40.352 70.167 40.55.305.07.627-.065.715-.3s-5.15-6.591-11.639-14.127-12.047-14.01-12.351-14.387c-.52-.643 3.25-.684 62.675-.684h41.899a50 50 0 0 0 6.336 14.995l-29.729 29.728c-24.597 24.598-44.799 44.646-44.894 44.55-.096-.094-.776-8.461-1.514-18.59-.737-10.13-1.5-18.576-1.695-18.77-.203-.204-.525-.133-.754.166-.775 1.01-21.18 78.18-20.78 78.582.369.368 76.66-19.777 78.43-20.71q.747-.393.348-.794c-.22-.221-8.705-1.021-18.856-1.78-10.15-.758-18.507-1.43-18.57-1.494-.063-.063 19.831-20.058 44.207-44.433l30.33-30.328a50 50 0 0 0 13.99 5.705v42.476c0 34.194-.09 62.172-.199 62.172s-6.328-5.307-13.82-11.79c-16.698-14.454-14.936-13.034-15.236-12.25-.285.74 40 70.794 40.71 70.794.248 0 9.424-15.53 20.393-34.514 10.97-18.983 20.111-34.86 20.315-35.28.233-.484.219-.918-.037-1.175-.331-.33-14.424 11.422-28.446 23.721-.671.589-.705-2.369-.705-61.414v-42.666a50 50 0 0 0 13.848-5.518l30.47 30.471c24.377 24.375 44.274 44.367 44.215 44.426s-7.988.663-17.619 1.344c-19.96 1.41-20.129 1.428-20.129 2.228 0 .323.072.586.16.586s17.364 4.612 38.391 10.248 38.73 10.372 39.34 10.523c.947.236 1.11.152 1.11-.58 0-1.17-20.568-77.933-21.01-78.412-.224-.242-.489-.242-.721 0-.202.21-.958 8.544-1.68 18.52s-1.424 18.27-1.558 18.431-20.372-19.836-44.973-44.437l-29.328-29.328a50 50 0 0 0 6.572-15.403h41.408c34.86 0 63.381.09 63.381.2s-5.307 6.328-11.79 13.82c-14.454 16.698-13.034 14.934-12.25 15.234.74.285 70.794-40 70.794-40.71 0-.346-66.358-39.049-69.795-40.708-.483-.232-.917-.217-1.174.04-.33.33 11.422 14.423 23.721 28.445.589.671-2.387.705-61.816.705h-42.342a50 50 0 0 0-5.746-14.348l29.568-29.57c24.154-24.154 43.974-43.858 44.047-43.785.072.072.673 7.729 1.334 17.013 1.412 19.842 1.461 20.307 2.193 20.307.68 0-.788 5.194 11.278-39.879 6.553-24.483 10.157-38.608 9.912-38.853-.353-.353-77.482 19.987-78.739 20.763-.335.208-.354.427-.06.721.237.237 8.497 1.025 18.877 1.8 10.15.76 18.522 1.445 18.603 1.526s-19.797 20.092-44.173 44.467l-28.89 28.889a50 50 0 0 0-15.429-6.442V102.377l.906.81c.5.447 6.951 6.033 14.34 12.413 9.064 7.826 13.569 11.466 13.844 11.191s.245-.716-.094-1.357c-1.554-2.943-39.637-68.748-40.021-69.155a.9.9 0 0 0-.455-.26" style="fill:#0f0;fill-opacity:1;stroke-width:.302295"/></svg>