<svg xmlns="http://www.w3.org/2000/svg" xml:space="preserve" width="512" height="512"><path fill="#392816" stroke="#704f2b" stroke-miterlimit="50" stroke-width="20.331" d="M10.166 10.166h491.669v491.669H10.166z"/><path fill="#fff" d="M255.979 56C226.38 99.987 161.383 171.836 106 207.764v48.791c53.112-35.906 105.113-85.372 140.56-134.426l9.44-13.06 9.44 13.062c35.332 48.895 87.962 98.066 140.56 134.207v-48.522C349.61 171.896 285.347 99.927 255.979 56m0 100.01C226.38 199.997 161.383 271.846 106 307.773v48.794c53.112-35.902 105.113-85.37 140.56-134.423L256 209.08l9.44 13.063C300.773 271.04 353.403 320.21 406 356.351v-48.524c-56.39-35.922-120.654-107.888-150.022-151.814Zm0 99.436C226.38 299.431 161.383 371.281 106 407.207v48.794c53.113-35.904 105.114-85.37 140.56-134.423l9.44-13.064 9.44 13.064c35.333 48.896 87.963 98.066 140.56 134.207v-48.523c-56.39-35.923-120.654-107.89-150.021-151.815Z" style="fill:#0f0;fill-opacity:1;stroke-width:.960501"/></svg>