<svg xmlns="http://www.w3.org/2000/svg" width="512" height="512"><path fill="#fff" d="M256 16C123.45 16 16 123.45 16 256s107.45 240 240 240 240-107.45 240-240S388.55 16 256 16m0 60c99.41 0 180 80.59 180 180s-80.59 180-180 180S76 355.41 76 256 156.59 76 256 76m-15 30a15 15 0 0 0-15 15v30a15 15 0 0 0 15 15h30a15 15 0 0 0 15-15v-30a15 15 0 0 0-15-15zm16.75 90.03A60 60 0 0 0 196 256a60 60 0 0 0 120 0 60 60 0 0 0-58.25-59.97M121 226a15 15 0 0 0-15 15v30a15 15 0 0 0 15 15h30a15 15 0 0 0 15-15v-30a15 15 0 0 0-15-15zm240 0a15 15 0 0 0-15 15v30a15 15 0 0 0 15 15h30a15 15 0 0 0 15-15v-30a15 15 0 0 0-15-15ZM241 346a15 15 0 0 0-15 15v30a15 15 0 0 0 15 15h30a15 15 0 0 0 15-15v-30a15 15 0 0 0-15-15z" style="fill:#0f0" transform="translate(42.667 42.667)scale(.83333)"/></svg>