<svg xmlns="http://www.w3.org/2000/svg" xml:space="preserve" width="512" height="512"><path fill="#392816" stroke="#704f2b" stroke-miterlimit="50" stroke-width="20.331" d="M10.166 10.166h491.669v491.669H10.166z"/><path fill="#fff" d="M256 56.001c-110.457 0-199.999 89.542-199.999 200 0 110.457 89.542 199.999 200 199.999C366.458 456 456 366.458 456 256c0-110.457-89.542-199.999-200-199.999m0 50c82.842 0 150 67.158 150 150C406 338.84 338.842 406 256 406c-82.84 0-149.999-67.158-149.999-150 0-82.84 67.158-149.999 150-149.999m-12.5 25a12.5 12.5 0 0 0-12.5 12.5v25a12.5 12.5 0 0 0 12.5 12.5h25a12.5 12.5 0 0 0 12.5-12.5v-25a12.5 12.5 0 0 0-12.5-12.5Zm13.958 75.025A50 50 0 0 0 206 256a50 50 0 0 0 100 0 50 50 0 0 0-48.542-49.974M143.5 231a12.5 12.5 0 0 0-12.5 12.5v25a12.5 12.5 0 0 0 12.5 12.5h25a12.5 12.5 0 0 0 12.5-12.5v-25a12.5 12.5 0 0 0-12.5-12.5Zm200 0a12.5 12.5 0 0 0-12.5 12.5v25a12.5 12.5 0 0 0 12.5 12.5H368.5a12.5 12.5 0 0 0 12.5-12.5v-25a12.5 12.5 0 0 0-12.5-12.5Zm-100 100a12.5 12.5 0 0 0-12.5 12.5v25A12.5 12.5 0 0 0 243.5 381h25a12.5 12.5 0 0 0 12.5-12.5v-25a12.5 12.5 0 0 0-12.5-12.5Z" style="fill:#0f0;stroke-width:.83333"/></svg>