<svg xmlns="http://www.w3.org/2000/svg" xml:space="preserve" width="512" height="512"><path fill="#392816" stroke="#704f2b" stroke-miterlimit="50" stroke-width="20.331" d="M10.166 10.166h491.669v491.669H10.166z"/><path d="m191.292 56.002-12.264 22.396q9.49-.331 19.041-.583l3.573-6.524h108.72l3.506 6.405q9.543.24 19.029.561l-12.188-22.256H191.291Zm64.707 36.308c-42.565.047-85.072 1.33-125.935 3.706-3.014 42.966-7.814 85.785-.731 123.873 83.067 10.53 167.536 11.03 253.733-.046 6.563-26.323 4.76-71.933-.967-123.929-40.906-2.457-83.47-3.653-126.1-3.605zm143.053 4.706c5.972 54.468 8.477 101.788-1.056 131.855l-1.497 4.723-5.327.715c-91.907 12.341-181.965 11.731-270.33.002l-5.846-.776-1.159-5.293c-9.2-42.04-3.8-87.312-.618-131.175-4.548.3-9.083.612-13.583.94-7.996 49.752-8.735 99.352-.046 148.906 102.548 10.268 206.767 10.368 312.746-.008 7.909-49.125 7.711-98.751-.016-148.923-4.395-.34-8.823-.66-13.267-.969zM255.97 116.943a576 576 0 0 1 90.766 7.127l6.94 1.1v6.432c0 13.213 1.565 29.82-11.805 42.686-9.22 8.872-23.865 14.727-47.73 17.486v15.43H217.86V191.53c-22.318-2.863-36.606-8.644-45.919-17.147-13.795-12.594-13.616-29.187-13.616-42.778v-6.451l6.962-1.086c30.18-4.706 60.423-7.103 90.679-7.124zm.011 15.285c-26.94.019-53.872 2.076-80.798 5.943.247 10.432 1.521 18.94 8.598 25.403 5.502 5.023 15.77 9.697 34.081 12.387v-24.822h76.279v25.068c19.876-2.646 30.381-7.437 35.585-12.445 6.542-6.294 7.159-14.867 7.19-25.59-26.976-3.932-53.958-5.963-80.936-5.944zm-21.375 34.205v25.484h42.79v-25.484zM429.65 244.94a575.812 525.822 0 0 1-1.497 9.234c.199 1.998.39 3.997.586 5.997L456 285.064v-18.892l-26.35-21.233zm-347.427.102-26.222 21.129v18.892l27.273-24.905c.19-1.977.377-3.954.573-5.93a504.185 460.413 0 0 1-1.624-9.186m329.891 17.326a1523.717 1391.432 0 0 1-28.673 2.52v62.942h14.884v56.065H383.44v68.48c9.598-.537 19.19-1.115 28.77-1.768 8.786-62.87 6.026-125.465-.096-188.24zm-312.162.026c-6.067 63.339-8.993 126.208-.174 188.22q14.406 1.005 28.781 1.822v-68.54h-14.884v-56.065h14.884v-62.881a1429.764 1305.635 0 0 1-28.606-2.557Zm266.745 3.738q-13.973.968-27.907 1.692v60.006h27.907zm-221.395.072v61.626h27.907v-59.93a1448.368 1322.625 0 0 1-27.907-1.696m176.744 2.4a1599 1599 0 0 1-132.093.066v16.407c22.28-4.388 44.465-6.5 66.527-6.448 21.988.051 43.855 2.255 65.566 6.478v-16.505zM81.164 283.71 56 306.689v48.326h21.451c.35-23.774 1.749-47.549 3.712-71.304m349.718.04c1.972 23.676 3.358 47.426 3.68 71.263H456v-48.326zM256.445 293.9c-22.028-.053-44.174 2.19-66.49 6.84v27.09h14.883v15.667c15.844 4.541 29.516 7.215 42.79 8.007v-2.438h16.745v2.436c13.274-.791 26.946-3.465 42.79-8.006v-15.665h14.884v-27.069c-21.786-4.474-43.634-6.81-65.603-6.862zm-126.026 49.22v25.484h20.465v-19.538h16.745v19.538h20.465v-25.484zm193.488 0v25.484h20.465v-19.538h16.744v19.538h20.466v-25.484zm-119.07 16.345v24.431h-14.883v13.47c45.142 9.23 89.035 9.059 132.093.038v-13.508h-14.884v-24.43c-15.192 4.032-29.1 6.387-42.79 7.072v9.712h-16.745v-9.713c-13.69-.684-27.598-3.04-42.79-7.072zm-148.836 10.84v11.892h21.526q-.125-5.946-.152-11.892zm378.615 0a869.765 794.254 0 0 1-.168 11.892H456v-11.892Zm-289.313 13.591v16.818c5.709 6.128 10.44 8.3 13.892 8.362 3.474.064 8.09-1.802 14.015-8.316v-16.864h-5.581v5.946h-16.745v-5.946zm193.488 0v16.818c5.709 6.128 10.439 8.3 13.892 8.362 3.473.064 8.09-1.802 14.015-8.316v-16.864h-5.582v5.946h-16.744v-5.946zM56 397.49v29.862c5.206 4.68 8.072 7.008 11.02 7.905 2.282.695 7.174.977 13.995 1.119-1.436-12.955-2.406-25.917-2.98-38.887H56Zm377.925 0c-.585 12.932-1.558 25.894-2.986 38.888 6.844-.142 11.753-.424 14.04-1.12 2.95-.898 5.814-3.225 11.02-7.906v-29.862zm-243.972 15.53v42.047c44.233 1.282 88.258 1.228 132.093-.063v-41.935c-43.085 8.52-87.2 8.652-132.093-.048zm-44.65 7.75v32.55q13.967.687 27.906 1.195V420.81c-4.52 2.367-9.312 3.647-14.353 3.554-4.83-.088-9.336-1.38-13.554-3.595m193.488 0v33.685c9.312-.342 18.614-.746 27.907-1.2V420.81c-4.521 2.367-9.312 3.647-14.354 3.554-4.83-.088-9.335-1.38-13.553-3.595" style="fill:#0f0;stroke-width:.888933"/></svg>