<svg xmlns="http://www.w3.org/2000/svg" xml:space="preserve" width="512" height="512"><path fill="#392816" stroke="#704f2b" stroke-miterlimit="50" stroke-width="20.331" d="M10.166 10.166h491.669v491.669H10.166z"/><path d="m217.66 75.702-5.91-3.73c-11.566-7.139-26.003-11.286-38.414-7.394-13.34 4.181-23.977 14.523-29.55 30.058l-7.936-4.113c-13.677-7.088-20.837-7.198-26.772-4.513-4.736 2.133-9.676 7.266-15.273 14.761l69.569 54.142c10.89 3.569 26.848 3.484 42.805-.68 16.04-4.164 31.998-12.322 43.649-23.285l26.257-65.35c-23.133-18.399-44.24-7.742-58.424 10.104m44.831 65.019c-14.353 14.617-35.713 24.475-52.345 28.894-5.826 1.53-11.651 2.634-17.308 3.229-3.124 5.184-5.741 10.452-7.767 15.721 4.052 20.736 11.65 37.732 23.048 51.669l-12.157 10.197c-7.008-8.498-13.255-17.676-17.983-27.873-.76 19.715 3.63 40.11 10.806 61.356l-14.943 5.099c-13.171-38.751-17.646-78.438.844-115.83-6.248-.51-12.158-1.699-17.646-3.653l-.253-.085q-5.445 5.226-10.384 10.962c-26.654 31.103-41.336 72.489-33.653 104.697 4.111 17.25 11.482 33.567 22.086 47.504 15.535-.34 30.225 0 43.565 5.099 6.332-.68 12.833-1.105 19.587-1.105 24.062 0 45.844 4.504 62.308 12.322 6.416 3.06 12.242 6.714 16.886 10.878 0-4.504.675-9.348 2.026-12.917-7.514-7.139-12.242-15.807-12.242-25.664 0-13.682 9.034-24.985 22.12-33.143 0-3.91.76-7.648 2.11-11.217-8.527-7.394-14.014-16.572-14.014-27.28 0-6.713 2.195-12.831 5.91-18.355-3.715-5.439-5.91-11.558-5.91-18.271 0-3.314.506-6.374 1.435-9.348-8.19-7.308-13.34-16.316-13.34-26.684 0-10.283 5.066-19.206 13.17-26.43-4.98-3.908-10.3-7.223-15.956-9.772m94.053 1.955c-21.951 0-41.792 4.673-55.385 11.557-13.677 6.883-20.094 15.382-20.094 22.69 0 7.393 6.417 15.891 20.094 22.775 13.593 6.883 33.434 11.557 55.385 11.557 9.54 0 18.574-.935 26.932-2.464v-14.447c11.736-1.785 21.445-5.014 27.693-9.178v14.957c10.553-3.06 20.685-14.362 20.938-23.2 0-7.308-6.417-15.807-20.094-22.69s-33.433-11.557-55.47-11.557m81.474 57.532c-2.786 2.974-6.079 5.778-9.794 8.328l.17 24.644c10.637-6.373 15.618-13.767 15.618-20.225 0-4.08-1.942-8.498-5.994-12.747M292.97 213.295c.253 7.308 6.67 15.551 20.093 22.35 13.678 6.968 33.434 11.557 55.47 11.557 13.761 0 26.679-1.87 37.739-4.929l.59-23.115c-14.52 5.1-31.744 7.904-50.318 7.904-24.062 0-45.929-4.844-62.477-13.172-.422-.17-.76-.425-1.097-.595m1.688 29.573c-1.182 2.295-1.688 4.59-1.688 6.714 0 7.393 6.416 15.891 20.093 22.775 13.678 6.883 33.434 11.472 55.47 11.472 11.144 0 21.698-1.105 31.238-3.23v-20.395c-9.794 1.87-20.263 2.805-31.238 2.805-24.147 0-46.014-4.76-62.562-13.172a71 71 0 0 1-11.313-6.969m147.665 0c-5.15 3.654-9.625 6.374-14.86 8.668v18.951c11.23-6.544 16.548-14.192 16.548-20.905 0-2.125-.506-4.42-1.688-6.714m6.332 31.273c-1.689 1.7-3.546 3.314-5.572 4.93v27.533C451.78 300.655 456 294.112 456 288.163c0-4.504-2.448-9.348-7.345-14.022M305.044 286.04c-.085.764-.17 1.444-.17 2.124 0 7.393 6.417 15.806 20.095 22.69 13.677 6.968 33.518 11.557 55.469 11.557 12.58 0 24.568-1.53 34.953-4.079v-25.409c-13.762 4.419-29.719 6.798-46.857 6.798-24.147 0-46.014-4.843-62.562-13.172-.337-.17-.59-.34-.928-.51m-11.482 18.186c-7.346 5.524-10.807 11.558-10.807 16.997 0 7.393 6.416 15.806 20.094 22.775 13.677 6.883 33.433 11.472 55.469 11.472 8.02 0 15.788-.595 23.049-1.7v-15.466h-.93c-24.145 0-46.012-4.844-62.56-13.257-10.554-5.269-19.334-12.322-24.315-20.82m137.195 26.004a124.7 124.7 0 0 1-21.698 5.608v10.283c1.604-.68 3.208-1.36 4.728-2.124 8.274-4.25 13.846-9.008 16.97-13.767m7.767 15.466c-3.208 3.23-6.923 6.119-11.06 8.753v24.305c11.23-6.459 16.548-14.107 16.548-20.82 0-3.91-1.773-8.159-5.488-12.238m-294.4 2.38c-8.612.085-17.899 1.19-27.524 3.484-19.258 4.504-35.814 12.747-46.62 21.84-10.807 9.008-15.029 18.186-13.762 24.73 1.266 6.543 7.936 12.577 20.938 16.06 12.96 3.4 31.086 3.57 50.336-.934 7.767-1.87 15.028-4.249 21.698-7.053V388.61c12.326-5.524 21.529-12.153 25.666-18.611v20.735c10.216-8.838 14.184-17.676 13.002-24.135-1.182-6.543-7.937-12.577-20.938-15.976-6.501-1.7-14.269-2.634-22.796-2.55m54.54 4.42c2.28 3.314 3.884 7.053 4.728 11.217.93 5.099.507 10.028-1.013 14.872 8.359 2.21 15.957 5.184 22.543 8.923 3.714 2.04 7.176 4.504 10.215 7.053 7.599-1.784 14.015-4.334 18.575-7.393v17.506c13.592-6.459 19.84-14.362 19.84-20.65 0-6.374-6.248-14.277-19.925-20.736-13.593-6.373-33.18-10.707-54.963-10.792m94.391 4.249c-.084.34-.084.765-.084 1.19 0 7.393 6.416 15.806 20.093 22.774 13.678 6.884 33.434 11.473 55.47 11.473 11.144 0 21.698-1.19 31.238-3.23v-22.86c-12.495 3.4-26.595 5.27-41.454 5.27-24.147 0-46.013-4.844-62.561-13.173a89 89 0 0 0-2.702-1.444m2.364 31.698c-1.689 2.804-2.448 5.523-2.448 8.158 0 7.393 6.416 15.806 20.093 22.775 13.678 6.883 33.434 11.472 55.47 11.472 11.144 0 21.698-1.19 31.238-3.23v-22.434c-9.794 1.87-20.263 2.89-31.238 2.89-24.147 0-46.014-4.845-62.562-13.258-3.799-1.87-7.345-3.994-10.553-6.373m146.145 0c-4.897 3.314-9.203 5.948-14.1 8.073v20.905c11.23-6.458 16.548-14.107 16.548-20.82 0-2.635-.76-5.354-2.448-8.158m-247.036 4.589a71 71 0 0 1-10.3 10.537c-13.171 11.133-31.746 20.14-53.19 25.155-7.65 1.784-15.248 2.889-22.543 3.484 2.702 4.504 7.455 8.923 14.412 12.832 11.508 6.543 28.393 10.963 47.136 10.963 8.528 0 16.633-.935 24.062-2.55v-17.676c11.651-1.785 21.445-5.014 27.693-9.178v15.637c8.443-5.95 12.495-12.663 12.495-19.036 0-7.394-5.488-15.297-17.054-21.84-6.248-3.484-14.015-6.374-22.711-8.328" style="fill:#0f0;stroke-width:.84704"/></svg>