<svg xmlns="http://www.w3.org/2000/svg" xml:space="preserve" width="512" height="512"><path fill="#392816" stroke="#704f2b" stroke-miterlimit="50" stroke-width="20.331" d="M10.166 10.166h491.669v491.669H10.166z"/><path d="M238.263 118.502c-6.265 0-12.529.124-18.73.31l3.783 40.759-37.895-38.832c-19.413 1.553-38.763 4.1-58.176 7.766l21.212 17.645-29.77-.372c21.769 62.255 4.279 113.452-.186 181.486l59.353 65.735a503 503 0 0 1 18.359-2.05l13.334-26.22 11.536 17.894 25.738-20.814.497 26.717c51.415-.125 97.806 5.654 146.183 4.908-17.49-45.356-19.351-89.22-19.785-129.98l-20.653-11.866 20.28-21.063c-.247-13.234-.806-26.095-2.232-38.46l-35.6.436 31.135-25.91c-2.357-9.63-5.582-18.887-9.986-27.772l-18.296-14.85c-33.367-3.417-66.734-5.53-100.101-5.467m36.406 22.989c6.574 15.377 13.086 30.755 19.66 46.163 4.652-6.524 9.241-13.047 13.893-19.571 9.923 16.9 19.847 33.737 29.77 50.637l-10.047 5.903-20.653-35.229-26.36 36.906-9.426-6.772 14.885-20.814-13.583-31.998-15.257 24.915 7.442 14.041-10.233 5.468-11.35-21.435-15.38 36.16-10.668-4.598 20.156-47.344 4.776-11.183c2.977 5.716 5.954 11.37 8.993 17.024 7.753-12.8 15.567-25.543 23.382-38.273M153.79 176.47c4.168.994 8.311 2.112 11.908 3.293-1.302 3.665-2.543 7.331-3.845 10.935-3.591-.994-7.269-2.113-10.482-2.92.863-3.728 1.625-7.518 2.42-11.308m23.505 8.325c3.907 2.361 7.443 4.474 10.544 7.953l-8.373 7.953a44.8 44.8 0 0 0-7.939-5.84zm17.8 20.069c1.303 4.597 1.303 9.754.992 13.98l-11.473-1.492c.062-3.169.186-6.213-.62-9.009zm-13.148 22.18 10.667 4.412c-2.046 4.1-3.163 7.89-5.333 11.06l-10.11-5.592c1.613-3.355 3.473-6.71 4.776-9.88m-10.234 21.188 10.978 3.79c-.93 3.355-1.86 6.958-2.233 10.065l-11.536-1.243c.807-4.66 1.303-8.698 2.791-12.612m128.88 10.81c5.271.622 9.054 1.864 13.458 4.412l-6.078 9.94c-2.543-1.739-5.83-2.36-8.373-2.795zm-13.149.932c.682 3.79 1.55 7.58 2.419 11.37-3.66.808-7.257 2.05-10.234 3.17l-4.217-10.812c4.155-1.49 8.373-2.92 12.032-3.728m-23.506 9.88 6.822 9.381c-3.473 2.485-7.318 4.846-10.42 6.586l-5.519-10.19c3.163-1.801 6.574-3.914 9.117-5.778m-82.798 1.678c.93 2.92 2.605 5.716 4.28 7.518l-8.559 7.828c-3.411-3.541-5.892-8.387-6.946-12.488zm142.834 2.05c2.171 3.977 4.218 7.891 5.396 11.867l-11.04 3.48c-1.24-3.355-2.667-6.71-4.217-9.196zm-79.014 6.773 4.28 10.748c-3.97 1.678-8.001 2.983-11.537 4.039l-3.1-11.184c3.659-.994 7.008-2.36 10.357-3.603m-51.974 3.852c3.288 1.056 6.699 2.112 9.738 2.61-.745 3.79-1.24 7.641-1.737 11.494-4.341-.622-8.993-2.05-12.714-3.542zm31.01 2.174 1.737 11.495c-4.465.807-8.31.994-12.28 1.18l-.248-11.618c3.66-.125 7.195-.497 10.792-1.057m108.226 11.184c.62 3.976.992 8.015 1.364 11.991l-11.597.932c-.249-3.728-.559-7.393-1.24-11.059zm-41.926 19.137c11.722 2.174 27.847 10.065 42.732 21.062 4.59-6.15 8.931-12.675 13.21-19.323l18.669 8.015c-2.915 7.642-9.303 15.906-17.738 23.113 10.544 10.065 19.164 21.436 22.948 32.93-8.56-11.246-19.289-19.758-31.197-26.592-14.513 9.816-32.685 16.092-49.368 12.674 14.202-2.733 25.18-10.313 34.607-20.254-10.233-4.66-20.963-8.637-31.816-12.489zm-52.035-198.2c-6.265 0-12.529.124-18.73.31l3.783 40.759-37.895-38.832c-19.413 1.553-38.763 4.1-58.176 7.766l21.212 17.645-29.77-.372c21.769 62.255 4.279 113.452-.187 181.486l59.354 65.735a503 503 0 0 1 18.358-2.05l13.335-26.22 11.536 17.894 25.738-20.814.497 26.717c51.415-.125 97.806 5.654 146.182 4.908-17.49-45.356-19.35-89.22-19.784-129.98l-20.653-11.866 20.28-21.063c-.247-13.234-.806-26.095-2.232-38.46l-35.6.436 31.135-25.91c-2.357-9.63-5.582-18.887-9.986-27.772l-18.296-14.85c-33.367-3.417-66.734-5.53-100.101-5.467m36.406 22.989c6.574 15.377 13.086 30.755 19.66 46.163 4.652-6.524 9.241-13.047 13.893-19.571 9.923 16.9 19.847 33.737 29.77 50.637l-10.047 5.903-20.653-35.229-26.36 36.906-9.426-6.772 14.885-20.814-13.583-31.998-15.257 24.915 7.442 14.041-10.233 5.468-11.35-21.435-15.38 36.16-10.668-4.598 20.156-47.344 4.776-11.183c2.977 5.716 5.954 11.37 8.993 17.024 7.753-12.8 15.567-25.543 23.382-38.273M153.79 176.47c4.168.994 8.311 2.112 11.908 3.293-1.302 3.665-2.543 7.331-3.845 10.935-3.591-.994-7.269-2.113-10.482-2.92.863-3.728 1.625-7.518 2.42-11.308m23.505 8.325c3.907 2.361 7.443 4.474 10.544 7.953l-8.373 7.953a44.8 44.8 0 0 0-7.939-5.84zm17.8 20.069c1.303 4.597 1.303 9.754.992 13.98l-11.473-1.492c.062-3.169.186-6.213-.62-9.009zm-13.148 22.18 10.667 4.412c-2.046 4.1-3.163 7.89-5.333 11.06l-10.11-5.592c1.613-3.355 3.473-6.71 4.776-9.88m-10.234 21.188 10.978 3.79c-.93 3.355-1.86 6.958-2.233 10.065l-11.536-1.243c.807-4.66 1.303-8.698 2.791-12.612m128.88 10.81c5.271.622 9.054 1.864 13.458 4.412l-6.078 9.94c-2.543-1.739-5.83-2.36-8.373-2.795zm-13.149.932c.682 3.79 1.55 7.58 2.419 11.37-3.66.808-7.257 2.05-10.234 3.17l-4.217-10.812c4.155-1.49 8.373-2.92 12.032-3.728m-23.506 9.88 6.822 9.381c-3.473 2.485-7.318 4.846-10.42 6.586l-5.519-10.19c3.163-1.801 6.574-3.914 9.117-5.778m-82.798 1.678c.93 2.92 2.605 5.716 4.28 7.518l-8.559 7.828c-3.411-3.541-5.892-8.387-6.946-12.488zm142.834 2.05c2.171 3.977 4.218 7.891 5.396 11.867l-11.04 3.48c-1.24-3.355-2.667-6.71-4.217-9.196zm-79.014 6.773 4.28 10.748c-3.97 1.678-8.001 2.983-11.537 4.039l-3.1-11.184c3.659-.994 7.008-2.36 10.357-3.603m-51.974 3.852c3.288 1.056 6.699 2.112 9.738 2.61-.745 3.79-1.24 7.641-1.737 11.494-4.341-.622-8.993-2.05-12.714-3.542zm31.01 2.174 1.737 11.495c-4.465.807-8.31.994-12.28 1.18l-.248-11.618c3.66-.125 7.195-.497 10.792-1.057m108.226 11.184c.62 3.976.992 8.015 1.364 11.991l-11.597.932c-.249-3.728-.559-7.393-1.24-11.059zm-41.926 19.137c11.722 2.174 27.847 10.065 42.732 21.062 4.59-6.15 8.931-12.675 13.21-19.323l18.669 8.015c-2.915 7.642-9.303 15.906-17.738 23.113 10.544 10.065 19.164 21.436 22.948 32.93-8.56-11.246-19.289-19.758-31.197-26.592-14.513 9.816-32.685 16.092-49.368 12.674 14.202-2.733 25.18-10.313 34.607-20.254-10.233-4.66-20.963-8.637-31.816-12.489z" style="fill:#0f0;fill-opacity:1;stroke-width:.620761"/><path d="M1348.566 85.17c-16.157-.115-37.63.03-66.484.195-100.657.577-103.587.71-109.32 4.992-3.24 2.42-7.868 7.051-10.288 10.292-4.282 5.733-4.415 8.663-4.992 109.325-.662 115.425-.968 112.722 14.064 124.188 10.763 8.21 28.444 8.21 39.208 0 3.374-2.574 5.936-4.735 7.928-7.396v-180.2h180.192c2.66-1.992 4.82-4.552 7.392-7.925 8.21-10.764 8.21-28.448 0-39.212-8.6-11.275-9.23-13.92-57.7-14.26m499.626.787c-103.907 0-106.298.094-112.065 4.4-11.142 8.318-14.692 15.2-14.692 28.468 0 10.046 1.045 13.65 5.748 19.816 2.572 3.373 4.73 5.933 7.388 7.924h180.433V327.03c1.962 2.533 4.432 4.649 7.688 7.132 6.13 4.675 9.79 5.748 19.608 5.748 9.817 0 13.474-1.073 19.604-5.748 14.805-11.293 14.536-9.07 14.536-121.228 0-112.16.269-109.937-14.536-121.229l-7.536-5.748zm-657.254 563.39c-13.268 0-20.146 3.55-28.464 14.692-4.306 5.767-4.4 8.16-4.4 112.072v106.18l5.716 7.496c3.145 4.123 8.906 9.067 12.804 10.988 6.253 3.081 18.95 3.497 108.128 3.54 112.524.054 110.244.328 121.544-14.488 8.21-10.764 8.21-28.448 0-39.212-2.498-3.275-4.621-5.76-7.176-7.728h-180.408v-180.4c-1.992-2.66-4.554-4.819-7.928-7.392-6.166-4.703-9.77-5.748-19.816-5.748m751.15 0c-12.514 0-19.363 3.393-27.084 13.104v180.436h-180.42c-9.748 7.737-13.149 14.59-13.149 27.124 0 10.03 1.045 13.652 5.716 19.776 3.145 4.123 8.907 9.067 12.804 10.988 6.253 3.081 18.95 3.497 108.129 3.54 112.521.054 110.242.326 121.544-14.488l5.748-7.532.592-103.224c.66-115.192.965-112.512-14.064-123.976-6.165-4.703-9.77-5.748-19.816-5.748" style="fill:#0f0;fill-opacity:1" transform="translate(-509.06 14.435)scale(.48828)"/></svg>