<svg xmlns="http://www.w3.org/2000/svg" xml:space="preserve" width="512" height="512"><path fill="#392816" stroke="#704f2b" stroke-miterlimit="50" stroke-width="20.331" d="M10.166 10.166h491.669v491.669H10.164Z"/><path fill="url(#pattern)" d="M0 0h512v512H0Z"/><path fill="#fee08b" d="M256.375 31c-77.731 0-141.01 62.423-141.01 139.809 0 43.808 15.13 64.324 31.984 91.057 11.238 17.828 22.818 38.316 29.31 67.745h158.502c6.459-30.133 18.155-50.998 29.49-69.004 16.879-26.805 31.984-46.959 31.984-89.796 0-77.439-62.526-139.808-140.26-139.808zM160.58 153.798l22.29 19.622 37.982 33.423 29.942-32.762 6.51-7.141 6.63 7.051 29.522 31.413 38.374-32.133 21.78-18.241-7.349 27.452-34.443 128.497-17.341-4.649 27.093-101.046-23.072 19.321-6.51 5.43-5.791-6.183-28.712-30.511-29.341 32.103-5.941 6.509-6.6-5.82-22.321-19.621 26.824 100.056-17.343 4.62-34.502-128.709zm21.69 193.753v39.483l139.389-39.483zm147.46 16.382-147.46 41.791v28.262l147.46-41.763V363.93Zm0 46.923-114.666 32.491H329.73v-32.492zm-127.268 50.432V481H311.22v-19.71H202.464z" style="fill:#0f0;fill-opacity:1"/></svg>