<svg xmlns="http://www.w3.org/2000/svg" xml:space="preserve" width="512" height="512"><path fill="#392816" stroke="#704f2b" stroke-miterlimit="50" stroke-width="20.331" d="M10.166 10.166h491.669v491.669H10.166z"/><g style="fill:#0f0"><path d="M297.172 56v.003c-39.211 0-71.791 27.137-80.838 63.553l-3.928 15.808-9.963-12.883c-10.815-13.99-27.394-23.214-46.258-23.214-32.46 0-59.014 26.571-59.014 59.073 0 5.13 1.2 10.253 2.795 15.861l2.477 8.775-9.016 1.213C72.383 186.97 56 204.932 56 226.82c0 23.831 19.273 43.107 43.069 43.107 15.374 0 28.918-8.279 36.53-20.473l5.878-9.406 6.934 8.615c13.006 16.08 32.846 26.426 55.11 26.426 25.82 0 47.698-13.638 60.147-34.305l6.697-11.119 6.77 11.092c7.572 12.373 20.883 20.422 36.504 20.422 12.61 0 23.886-5.334 31.737-13.911l5.457-5.955 5.824 5.586a59.4 59.4 0 0 0 14.672 10.297 100 100 0 0 1 21.42 5.83c1.41.1 2.82.209 4.262.209 32.46 0 58.988-26.547 58.988-59.05 0-32.501-26.454-58.571-58.988-58.571a58 58 0 0 0-7.275.447l-8.75 1.105-.105-8.826C380.368 92.552 343.094 56 297.172 56M153.206 274.59v.002l8.489 29.72 15.076-4.505-4.191-14.701c-6.932-2.675-13.428-6.244-19.374-10.516m-38.903 9.039a57.4 57.4 0 0 1-15.232 2.057c-.186 0-.37-.025-.555-.025l9.96 34.963 15.079-4.531-9.253-32.461zm111.309 4.322a85 85 0 0 1-15.63 2.635l7.565 26.508 15.076-4.534zm-38.615 47.637-15.103 4.533 7.592 26.584 15.077-4.53zm55.853 12.754-15.103 4.53 14.285 50.118 15.104-4.533zm-109.067 3.53-15.102 4.532 12.205 42.79 15.102-4.532zm71.01 46.083-15.104 4.533 7.615 26.717 15.104-4.531zm-48.605 32.488-15.076 4.53 5.98 21.029h16.395zm111.148 3.793-15.076 4.533 4.9 17.233h16.395l-6.22-21.764zM356.002 266c-49.706 0-90 40.295-90 90 0 49.706 40.294 90 90 90 49.705 0 90-40.294 90-90 0-49.705-40.295-90-90-90m0 20c38.66 0 70 31.34 70 70s-31.34 70-70 70-70-31.34-70-70 31.34-70 70-70"/><path d="M355.998 286c-2.567 0-4.667 4.18-4.667 9.333 0 2.47.496 4.84 1.37 6.583-1.37.062-2.625.339-3.996.71v4.623c4.989-.706 9.947-.674 14.585 0v-4.623c-1.313-.394-2.742-.615-3.996-.71.875-1.743 1.37-4.111 1.37-6.582 0-5.154-2.1-9.333-4.666-9.333m-49.52 20.5c-1.822 1.823-.346 6.247 3.297 9.893 1.77 1.75 3.783 3.092 5.65 3.704-.933 1.02-1.633 2.1-2.333 3.325l3.296 3.267a49.3 49.3 0 0 1 10.296-10.296l-3.268-3.296c-1.225.642-2.333 1.517-3.325 2.333-.613-1.867-1.954-3.88-3.704-5.63-2.333-1.81-7.16-5.95-9.909-3.301zm89.13 3.296c-1.75 1.755-3.091 3.767-3.703 5.634-1.021-.933-2.1-1.633-3.325-2.333l-3.267 3.296a49.2 49.2 0 0 1 10.296 10.296l3.296-3.267c-.642-1.225-1.517-2.333-2.333-3.325 1.838-.642 3.85-1.954 5.6-3.704 3.646-3.646 5.134-8.076 3.296-9.896-2.888-2.295-8.167 1.64-9.86 3.3zm-41.506 2.193a43.98 43.98 0 0 0-27.885 11.55c-.963.904-1.925 1.837-2.683 2.683a43.98 43.98 0 0 0-11.551 27.912c0 1.312-.058 2.654.029 3.792.438 10.733 4.725 20.475 11.522 27.883a116 116 0 0 0 2.683 2.683 44.1 44.1 0 0 0 27.885 11.521h.058c1.196.058 2.538 0 3.734 0a43.98 43.98 0 0 0 27.885-11.55c.963-.904 1.925-1.837 2.683-2.683a43.97 43.97 0 0 0 11.55-27.883v-.058c.058-1.225 0-2.537 0-3.733a43.97 43.97 0 0 0-11.55-27.883c-.904-.962-1.838-1.925-2.683-2.683a43.98 43.98 0 0 0-27.885-11.55c-1.313-.058-2.654 0-3.792 0zm1.896 3.121a2.34 2.34 0 0 1 2.333 2.333 2.34 2.34 0 0 1-2.333 2.333 2.34 2.34 0 0 1-2.333-2.332 2.34 2.34 0 0 1 2.333-2.333m2.013 8.282a32.6 32.6 0 0 1 19.63 8.137c.992.904 1.954 1.837 2.829 2.83a32.6 32.6 0 0 1 8.138 19.658c.117 1.342 0 2.683 0 3.996a32.6 32.6 0 0 1-8.138 19.629c-.904.992-1.838 1.954-2.83 2.829a32.6 32.6 0 0 1-19.66 8.137c-1.342.029-2.683.117-3.996 0a32.46 32.46 0 0 1-19.6-8.137h-.03a32 32 0 0 1-2.8-2.83 32.5 32.5 0 0 1-8.166-19.628c-.03-1.342-.117-2.654 0-3.967.146-7.525 3.879-14.73 8.138-19.687.904-.992 1.838-1.954 2.829-2.83a32.6 32.6 0 0 1 19.66-8.137c1.342-.117 2.683 0 3.996 0m-27.652 3.675a2.34 2.34 0 0 1 0 3.296 2.34 2.34 0 0 1-3.296 0 2.34 2.34 0 0 1 0-3.296c1.02-.846 2.392-.846 3.296 0m54.574 0a2.34 2.34 0 0 1 0 3.296 2.34 2.34 0 0 1-3.296 0 2.34 2.34 0 0 1 0-3.296c1.02-.846 2.392-.846 3.296 0m-33.602 1.896v2.538c.729.933 1.283 1.604 2.275 1.983a287 287 0 0 1-.817 10.996c2.158-.555 4.434-.584 6.446.028a291 291 0 0 1-.846-11.054c2.304-.612 2.275-2.508 2.275-4.492a30.3 30.3 0 0 0-9.334 0zm-11.172 4.609a28.3 28.3 0 0 0-6.592 6.592l1.808 1.808c1.167.146 2.042.233 3.004-.204a291 291 0 0 1 7.205 8.37 12.03 12.03 0 0 1 4.579-4.55 257 257 0 0 1-8.401-7.204c.525-.904.379-1.954.204-3.004zm31.677 0-1.808 1.808c-.204 1.167-.233 2.012.175 3.004a256 256 0 0 1-8.371 7.204 12.03 12.03 0 0 1 4.55 4.579c2.363-2.887 4.813-5.687 7.205-8.4.933.496 1.954.379 3.004.204l1.808-1.808a28.2 28.2 0 0 0-6.563-6.592zm32.902 15.137a50.9 50.9 0 0 1 0 14.583h4.638c.438-1.312.583-2.742.67-3.996 1.75.875 4.143 1.37 6.622 1.37 5.163 0 9.334-2.1 9.334-4.666s-4.171-4.667-9.334-4.667c-2.48 0-4.871.496-6.621 1.37-.03-1.37-.292-2.624-.671-3.995zm-102.11.029a18 18 0 0 0-.7 3.967c-1.756-.875-4.127-1.342-6.592-1.342-5.154 0-9.334 2.1-9.334 4.667s4.18 4.667 9.334 4.667c2.473 0 4.845-.497 6.592-1.372.044 1.371.327 2.625.7 3.996h4.609c-.694-4.987-.73-9.946 0-14.583zm53.37.554a6.708 6.708 0 1 0 0 13.416 6.708 6.708 0 1 0 0-13.416m24.502 2.042c-.933.728-1.604 1.282-1.983 2.274a287 287 0 0 1-10.997-.817c.554 2.187.554 4.433 0 6.446 3.675-.35 7.35-.642 10.997-.846.292 1.021 1.108 1.662 1.983 2.275h2.538a30.3 30.3 0 0 0 0-9.333zm-51.541.028c-.496 3.18-.438 6.358 0 9.333h2.538c.904-.729 1.633-1.254 1.954-2.275 3.646.175 7.32.467 11.026.817-.583-2.186-.583-4.432-.03-6.445-3.674.35-7.38.612-10.996.817-.263-1.021-1.108-1.662-1.954-2.246zm65.6 2.304a2.34 2.34 0 0 1 2.333 2.333 2.34 2.34 0 0 1-2.333 2.333 2.34 2.34 0 0 1-2.333-2.333 2.34 2.34 0 0 1 2.333-2.333m-77.121.03a2.34 2.34 0 0 1 2.333 2.332 2.34 2.34 0 0 1-2.333 2.333 2.34 2.34 0 0 1-2.333-2.333 2.34 2.34 0 0 1 2.333-2.333m48.974 8.166a12.03 12.03 0 0 1-4.58 4.55 257 257 0 0 1 8.402 7.204c-.525.904-.38 1.954-.204 3.004l1.808 1.808a28.3 28.3 0 0 0 6.592-6.592l-1.808-1.808c-1.167-.146-2.042-.233-3.004.204a291 291 0 0 1-7.205-8.37zm-20.826 0a294 294 0 0 1-7.205 8.371c-.904-.525-1.954-.379-2.975-.204l-1.838 1.808a26.8 26.8 0 0 0 6.62 6.592l1.809-1.808c.146-1.167.233-2.042-.204-3.004a292 292 0 0 1 8.37-7.204 12.24 12.24 0 0 1-4.579-4.55zm7.175 5.63a291 291 0 0 1 .846 11.053c-1.021.233-1.692 1.108-2.275 1.954v2.537c3.209.496 6.359.467 9.334 0v-2.536c-.73-.933-1.283-1.604-2.275-1.983.204-3.617.467-7.321.817-10.996-2.246.379-4.61.496-6.446-.03zm-22.372 14.145a2.34 2.34 0 0 1 0 3.296 2.34 2.34 0 0 1-3.296 0 2.34 2.34 0 0 1 0-3.296c1.02-.875 2.392-.875 3.296 0m54.545 0a2.34 2.34 0 0 1 0 3.296 2.34 2.34 0 0 1-3.296 0 2.34 2.34 0 0 1 0-3.296c1.02-.875 2.42-.875 3.296 0m10.676 3.675a49.3 49.3 0 0 1-10.296 10.296l3.267 3.296c1.225-.642 2.333-1.517 3.325-2.333.613 1.867 1.954 3.88 3.704 5.63 3.646 3.645 8.05 5.103 9.888 3.295 1.808-1.837.35-6.242-3.296-9.887-1.75-1.75-3.763-3.092-5.63-3.704.933-1.02 1.633-2.1 2.333-3.325zm-79.222 0-3.267 3.267c.67 1.196 1.488 2.392 2.333 3.325-1.867.612-3.88 1.954-5.65 3.704-3.637 3.646-5.11 8.05-3.296 9.887 1.82 1.837 6.262.35 9.909-3.296 1.75-1.75 3.092-3.762 3.704-5.629 1.02.933 2.1 1.633 3.325 2.333l3.267-3.267a49.5 49.5 0 0 1-10.326-10.325zm39.61 6.912a2.34 2.34 0 0 1 2.334 2.333 2.34 2.34 0 0 1-2.333 2.333 2.34 2.34 0 0 1-2.333-2.333 2.34 2.34 0 0 1 2.333-2.333m-7.292 12.541v4.608c1.313.408 2.742.612 3.996.7-.875 1.75-1.371 4.112-1.371 6.592 0 5.162 2.1 9.333 4.667 9.333s4.667-4.17 4.667-9.333c0-2.479-.496-4.842-1.371-6.592 1.37-.058 2.625-.32 3.996-.7v-4.637c-4.988.73-9.946.7-14.584.03"/></g></svg>