<svg xmlns="http://www.w3.org/2000/svg" xml:space="preserve" style="height:512px;width:512px" viewBox="0 0 512 512"><path d="M155.914 456H145.69l-2.73-9.807-2.731-9.806.021-2.596.021-2.596 7.769-2.294 7.769-2.295 1.592.307 1.592.306 3.512 12.096 3.512 12.095.06 2.295.06 2.295zm108.714 0h-9.977l-1.75-6.05-1.749-6.052-.789-2.42-.79-2.42v-3.869l7.1-2.166 7.098-2.166 2.683.261 2.683.261 2.673 9.18 2.674 9.182.06 3.13.06 3.129zm92.58-.356-15.436.303-6.675-1.24-6.675-1.24-6.675-2.19-6.675-2.19-7.092-3.56-7.092-3.56-6.123-4.324-6.122-4.323-6.393-6.418-6.394-6.418-4.434-6.451-4.435-6.452-4.073-8.548-4.074-8.549-2.24-8.346-2.241-8.346-.384-15.857-.383-15.858 1.796-8.763 1.796-8.763 2.957-7.512 2.957-7.511 2.15-3.745 2.15-3.746-.178-3.03-.18-3.03 2.4-.48 2.397-.48 4.65-5.755 4.648-5.755 5.287-4.55 5.287-4.55 3.092-2.275 3.092-2.275 5.669-3.31 5.67-3.31-2.504-.024-2.503-.025-4.48-1.193-4.479-1.192-4.588-2.322-4.588-2.322-4.757-4.613-4.756-4.613-3.403-5.716-3.403-5.716-3.489 5.874-3.488 5.874-4.733 5.625-4.733 5.624-5.803 4.42-5.804 4.418-5.951 2.903-5.951 2.903-7.019 1.887-7.018 1.887-12.099-.022-12.098-.021-5.67-1.405-5.67-1.404-5.915-2.518-5.915-2.517-5.718-3.803-5.719-3.803-7.276-7.779-7.276-7.78-4.504 6.586-4.505 6.586-5.5 4.12-5.5 4.12-4.479 1.715-4.478 1.714-5.576.906-5.576.906-6.258-.559-6.258-.558-5.006-1.646-5.006-1.646-4.442-2.916-4.441-2.917-3.611-3.77-3.611-3.77L61.168 250l-2.506-4.736-1.33-4.533L56 236.198v-17.755l1.331-4.534 1.331-4.533 2.518-4.756 2.517-4.757 5.146-4.943 5.145-4.942 4.183-2.12 4.183-2.12 4.553-1.27 4.554-1.27 4.38-.551 4.38-.552v-.722l-1.82-6.863-1.822-6.864.004-9.18.004-9.18 1.404-5.426 1.405-5.425 3.304-6.676 3.305-6.677 3.812-4.75 3.812-4.75 5.186-3.931 5.186-3.932 6.675-3.113 6.675-3.114 4.59-1.123 4.588-1.123 10.43.027 10.43.027 5.423 1.483 5.423 1.483 5.136 2.44 5.136 2.442 5.71 4.47 5.712 4.472 5.335 6.791 5.336 6.791h1.099l1.863-7.72 1.863-7.72 2.792-6.816 2.792-6.815 4.687-7.193 4.688-7.193 5.801-5.803 5.801-5.803 7.546-4.956 7.546-4.956 6.673-2.574 6.673-2.574 5.22-1.29 5.219-1.289 10.934-.485L302.731 56l6.985 1.022 6.985 1.021 6.695 2.088 6.695 2.088 6.877 3.628 6.878 3.628 4.804 3.71 4.803 3.712 5.06 5.314 5.06 5.314 3.596 5.323 3.596 5.323 2.892 6.262 2.893 6.262 2.013 7.939 2.013 7.939.532 9.31.531 9.31 12.19-.028 12.19-.029 5.423 1.446 5.423 1.447 7.092 3.524 7.092 3.525 7.116 7.119 7.116 7.118 3.023 5.843 3.023 5.842 1.793 5.842 1.794 5.842.48 7.929.48 7.929-.962 6.14-.96 6.142-1.704 5.126-1.704 5.126-3.365 5.712-3.365 5.712-5.13 5.228-5.132 5.227-4.632 2.96-4.632 2.96-5.108 2.15-5.108 2.15-5.333 1.012-5.333 1.012 7.564 4.955 7.564 4.956 7.583 7.611 7.584 7.611 4.424 6.605 4.424 6.605 3.605 7.612 3.605 7.613 2.127 7.9 2.127 7.899.994 9.807.993 9.807-.998 10.64-.999 10.641-1.666 6.365-1.666 6.364-2.427 5.965-2.426 5.964-3.63 6.346-3.63 6.346-5.423 6.753-5.423 6.753-6.873 5.913-6.873 5.912-6.73 4.005-6.731 4.005-7.094 2.861-7.095 2.862-6.836 1.732-6.837 1.733zm-3.755-17.281.834.106 7.51-.92 7.509-.921 6.906-2.001 6.905-2.001 7.279-3.658 7.278-3.657 5.007-3.772 5.006-3.772 5.932-6.13 5.932-6.13 3.952-6.113 3.952-6.112 2.459-5.425 2.459-5.424 2.237-8.076 2.237-8.076-.061-11.685-.062-11.684-1.744-6.406-1.745-6.406-2.699-6.485-2.699-6.485-4.847-7.248-4.846-7.248-5.954-5.956-5.954-5.955-6.994-4.655-6.994-4.655-6.465-2.7-6.465-2.7-5.006-1.352-5.006-1.353-7.092-.949-7.092-.948-5.424.56-5.423.562-5.424 1.138-5.423 1.138-4.922 1.709-4.921 1.708-6.963 3.705-6.962 3.705-4.811 3.703-4.811 3.703-5.416 5.747-5.416 5.748-3.023 4.582-3.024 4.582-2.908 5.842-2.908 5.842-1.733 5.425-1.732 5.425-1.044 5.008-1.043 5.007.074 9.598.074 9.598 2.11 8.1 2.11 8.101 3.29 7.022 3.289 7.021 3.585 5.326 3.586 5.325 6.74 6.743 6.742 6.743 5.324 3.586 5.324 3.587 6.79 3.182 6.789 3.183 6.29 1.726 6.292 1.727 6.21.72 6.209.719zm.724-3.228h-3.606l-1.48-2.258-1.479-2.258-.301-6.608-.302-6.607-1.576-.413-1.575-.412v-8.986h20.859v8.986l-1.58.413-1.578.413-.298 7.109-.299 7.109-1.59 1.756-1.589 1.756zm-52.672-21.7H298.3l-1.001-1.001-1.001-1.002v-7.779l2.16-3.185 2.161-3.185 2.011-1.582 2.011-1.582v-5.462l1.526-1.382 1.526-1.381h4.373l-3.168-6.196-3.167-6.195-1.17-5.28-1.171-5.28.1-9.599.1-9.597 1.837-5.425 1.838-5.425 2.45-4.382 2.45-4.381h-3.895l-1.815-1.932-1.814-1.932v-4.155l-2.991-2.876-2.992-2.876-1.18-2.254-1.18-2.254v-7.26l1-1.002 1.002-1.001h6.408l3.199 1.632 3.2 1.633 2.136 2.54 2.137 2.54h4.823l1.815 1.932 1.814 1.932v3.454l6.199-3.115 6.198-3.114 5.274-1.17 5.274-1.17 8.344.077 8.343.077 5.202 1.363 5.202 1.363 4.394 2.202 4.393 2.202 1.35 1.187 1.35 1.186-.412-2.159-.413-2.159 1.92-2.043 1.92-2.044h5.49l.923-1.725.923-1.726 3.859-2.447 3.859-2.448h6.211l1.32.506 1.32.507v9.329l-2.172 3.136-2.172 3.135-2 1.31-2 1.311v5.545l-1.526 1.381-1.525 1.381h-4.479l1.937 3.13 1.936 3.13 1.753 4.173 1.754 4.173 1.026 5.256 1.026 5.255-.463 8.933-.463 8.932-1.636 4.63-1.637 4.631-1.869 3.716-1.869 3.715-1.152 1.316-1.153 1.316 2.534-.372 2.535-.372 1.635 1.48 1.636 1.481v5.525l1.695.907 1.695.908 2.477 3.42 2.477 3.42v8.596l-1.001 1.002-1.001 1.001h-5.815l-3.595-1.74-3.595-1.741-1.731-2.432-1.732-2.433h-5.436l-1.814-1.931-1.814-1.932v-3.495l-5.632 2.842-5.632 2.842-4.973 1.255-4.973 1.254h-18.489l-4.861-1.266-4.861-1.267-5.744-2.883-5.744-2.884v3.836l-1.931 1.815-1.931 1.814h-4.59l-2.137 2.54-2.137 2.541-3.199 1.633-3.2 1.632zm52.422-24.248 3.812.045 4.532-1.323 4.532-1.323 3.754-2.21 3.755-2.209-2.92-.432-2.92-.432-.418-2.54-.417-2.542-3.438-3.092-3.44-3.093h-1.048v8.248l.834.516.834.516v8.247h-14.184v-7.392l1.104-1.105 1.105-1.104-.479-3.937-.478-3.937-3.242 2.73-3.243 2.73-.93 2.878-.93 2.877-2.92.418-2.92.417 3.338 2.006 3.337 2.006 4.59 1.496 4.588 1.496zm27.06-13.308h.417v-.835h-.834v.835zm-53.958-3.339.301-2.086.857-1.044.856-1.043 2.193-.07 2.192-.071 2.866-3.332 2.866-3.331-1.197-.758-1.198-.758-2.61-.013-2.609-.013-1.038 1.252-1.039 1.252h-7.305v-15.023h6.96l1.494 1.352 1.493 1.351 3.841-.576 3.841-.576-3.182-3.618-3.183-3.618-1.748-.078-1.748-.079-1.295-1.46-1.295-1.461-.325-1.67-.325-1.668-2.89 5.83-2.89 5.829v15.922l2.908 5.822 2.907 5.823zm54.78 1.67h.406l2.416-4.8 2.417-4.798.992-4.8.992-4.798-.98-4.724-.98-4.724-1.5-3.414-1.499-3.413-1.308-1.67-1.308-1.668-.026 2.128-.027 2.128-1 1.002-1.002 1.001h-3.644l-3.18 3.52-3.18 3.52 2.04.57 2.04.57 1.937.083 1.937.083 1.251-1.252 1.252-1.252h6.377l.506 1.32.507 1.32v9.742l-.507 1.32-.506 1.321h-6.292l-1.039-1.252-1.038-1.252-3.027.013-3.027.013-.987.628-.987.627 2.934 3.533 2.933 3.532h3.7l1.001 1.002 1.001 1.001v3.84zm-27.522-8.347h4.59v-1.669h-9.179v1.669zm-9.337-5.842h.16v-9.931l-.74.74-.74.739v6.574l.58.94.58.938zm19.767-.834h.834v-8.346h-1.669v8.346zm-17.105-11.685h.417v-.834h-.834v.834zm12.516-.834h.417v-.835h-.834v.835zm-5.842-1.208 4.589-.044v-.626l.001-.626h-9.178v1.34zm-5.33-9.47.51-3.928-1.135-1.317-1.136-1.318v-6.963h14.184v8.012l-.884.886-.885.885.259 4.08.259 4.081 3.963-3.653 3.963-3.654v-3.756l1.043-.847 1.043-.846 1.669-.376 1.669-.376-5.84-2.844-5.841-2.844h-15.02l-5.84 2.903-5.84 2.902 1.87.285 1.87.284 1.259 1.798 1.259 1.798v2.828l3.546 2.955 3.546 2.954zm-20.534-1.841h.417v-.835h-.834v.835zm45.89-5.843h.417v-.834h-.834v.834zm-76.898 36.723h-4.507l-.599-1.46-.599-1.461-5.84-.06-5.84-.059-2.712-1.423-2.712-1.422v-8.26l2.712-1.423 2.711-1.423 5.84-.059 5.841-.06.6-1.46.598-1.46h8.957l.028 10.015.028 10.015zm114.228 0h-4.805v-20.031h9.611l.004 1.461.004 1.46 6.615.005 6.616.004 2.35 1.748 2.35 1.748.264 3.128.264 3.129-1.376 1.52-1.376 1.521-4.174 1.002-4.175 1.002-3.683-.415-3.683-.416v3.134zm-57.355-62.774h-10.43v-8.889l1.67-.53 1.668-.53.002-5.577.002-5.577 1.459-2.921 1.459-2.921 3.798-.248 3.8-.248 1.624 1.795 1.625 1.796.293 6.977.293 6.978 1.584.503 1.584.503v8.889h-10.43zm-4.137-48.245 8.31-.017-4.173-3.707-4.172-3.706-.452-.032-.452-.032-3.685 3.756-3.685 3.755zM432.28 456h-10.033l-.875-2.295-.875-2.295-.423-3.756-.422-3.756 6.739-5.216 6.739-5.216h4.177v.42l2.503 8.76 2.503 8.76V456Zm-234.947-25.929-1.76.056-3.872-13.58-3.87-13.582V399.3l6.974-2.175 6.974-2.175 2.756.27 2.756.27 3.627 12.937 3.626 12.936-.215 2.045-.216 2.045-7.51 2.28-7.509 2.281zm45.022-26.65h-2.723l-1.657-5.634-1.656-5.634-5.471-19.18-5.47-19.182v-3.588l7.158-2.233 7.16-2.233 2.56.257 2.56.256 6.961 24.204 6.96 24.203-.2 2.416-.202 2.415-6.629 1.966-6.628 1.966zm-110.553-3.34h-2.051l-6.004-21.108-6.004-21.109v-4.357l6.05-1.858 6.049-1.858 3.486-.412 3.487-.411.98 3.649.978 3.649 4.921 17.33 4.921 17.331v4.724l-7.38 2.215-7.381 2.216zm48.658-32.548h-2.694l-.355-1.044-.355-1.043-3.374-11.828-3.373-11.828v-4.249l6.926-2.114 6.927-2.113h5.267l1.65 5.634 1.65 5.633 2.14 7.475 2.14 7.476v3.774l-6.927 2.113-6.927 2.114zm-71.042-45.069h-1.74l-.36-1.043-.359-1.043-4.62-16.258-4.62-16.257v-4.4l5.631-.518 5.632-.517 4.244-.523 4.244-.522 4.856 17.095 4.856 17.095-.453 1.182-.454 1.182-7.559 2.264-7.56 2.263zm107.94-3.394-1.76.056-3.872-13.581-3.87-13.582v-3.392l9.59-1.558 9.59-1.559.326.353.326.352 3.49 12.328 3.489 12.327-.265 1.818-.264 1.818-7.51 2.282-7.509 2.282zm-54.42-13.298h-2.694l-.359-1.043-.359-1.043-3.787-13.333-3.786-13.333v-4.632h3.784l3.197 2.174 3.198 2.173 6.556 3.238 6.555 3.238.847 3.144.847 3.143 1.266 4.173 1.266 4.173.009 1.85.009 1.852-6.927 2.113-6.927 2.113z" style="fill:#0f0;fill-opacity:1;stroke-width:.834484"/></svg>