<svg xmlns="http://www.w3.org/2000/svg" width="512" height="512" fill="#0f0"><path d="M297.17 56v.002c-39.211 0-71.791 27.137-80.838 63.553l-3.928 15.809-9.963-12.883c-10.815-13.99-27.394-23.215-46.258-23.215-32.46 0-59.014 26.572-59.014 59.074 0 5.129 1.201 10.253 2.795 15.861l2.477 8.775-9.016 1.213C72.382 186.969 56 204.932 56 226.82c0 23.831 19.272 43.107 43.068 43.107 15.374 0 28.918-8.279 36.531-20.473l5.877-9.406 6.934 8.615c13.006 16.079 32.846 26.426 55.111 26.426 25.82 0 47.697-13.638 60.146-34.305l6.697-11.119 6.771 11.092c7.572 12.373 20.883 20.422 36.504 20.422 12.609 0 23.885-5.335 31.736-13.912l5.457-5.955 5.824 5.586a59.4 59.4 0 0 0 14.672 10.297 100 100 0 0 1 21.42 5.83c1.411.101 2.82.209 4.262.209 32.46 0 58.988-26.547 58.988-59.049s-26.454-58.572-58.988-58.572a58 58 0 0 0-7.275.447l-8.75 1.105-.105-8.826C380.366 92.551 343.092 56 297.17 56M153.205 274.588v.002l8.488 29.721 15.076-4.506-4.191-14.701c-6.931-2.675-13.427-6.244-19.373-10.516m-38.904 9.039a57.4 57.4 0 0 1-15.232 2.057c-.186 0-.369-.025-.555-.025l9.961 34.963 15.078-4.531-9.252-32.461zm111.309 4.322a85 85 0 0 1-15.629 2.635l7.564 26.508 15.076-4.533zm-38.615 47.637-15.102 4.533 7.592 26.584 15.076-4.529zm55.854 12.754-15.104 4.531 14.285 50.117 15.104-4.533zm-109.068 3.531-15.102 4.531 12.205 42.791 15.102-4.533zm71.01 46.082-15.104 4.533 7.615 26.717 15.104-4.531zm227.936 22.449-.437.131a100 100 0 0 1-12.426 12.258L426.477 456h16.395zm-276.541 10.039-15.076 4.531L147.09 456h16.395zm111.148 3.793-15.076 4.533 4.9 17.233h16.395l-6.219-21.764zM356 266a90 90 0 1 0 0 180 90 90 0 1 0 0-180m0 20a70 70 0 1 1 0 140 70 70 0 1 1 0-140"/><path d="M355.996 286c-2.567 0-4.667 4.179-4.667 9.333 0 2.47.496 4.839 1.371 6.583-1.371.061-2.625.338-3.996.709v4.623c4.988-.706 9.946-.674 14.584 0v-4.623c-1.313-.394-2.742-.615-3.996-.709.875-1.744 1.371-4.112 1.371-6.583 0-5.154-2.1-9.333-4.667-9.333m-49.519 20.5c-1.823 1.823-.347 6.247 3.296 9.893 1.771 1.75 3.783 3.092 5.65 3.704-.933 1.021-1.633 2.1-2.333 3.325l3.296 3.267a49.3 49.3 0 0 1 10.296-10.296l-3.267-3.296c-1.225.642-2.333 1.517-3.325 2.333-.613-1.867-1.954-3.879-3.704-5.629-2.333-1.811-7.161-5.95-9.909-3.302zm89.13 3.296c-1.75 1.756-3.092 3.768-3.704 5.635-1.021-.933-2.1-1.633-3.325-2.333l-3.267 3.296a49.2 49.2 0 0 1 10.296 10.296l3.296-3.267c-.642-1.225-1.517-2.333-2.333-3.325 1.838-.642 3.85-1.954 5.6-3.704 3.646-3.646 5.134-8.076 3.296-9.896-2.888-2.295-8.167 1.639-9.859 3.299zM354.1 311.99a43.98 43.98 0 0 0-27.885 11.55c-.963.904-1.925 1.837-2.683 2.683a43.98 43.98 0 0 0-11.551 27.912c0 1.312-.058 2.654.029 3.792.438 10.733 4.725 20.475 11.522 27.883a116 116 0 0 0 2.683 2.683 44.1 44.1 0 0 0 27.885 11.521h.058c1.196.058 2.538 0 3.734 0a43.98 43.98 0 0 0 27.885-11.55c.963-.904 1.925-1.837 2.683-2.683a43.97 43.97 0 0 0 11.551-27.883v-.058c.058-1.225 0-2.537 0-3.733a43.97 43.97 0 0 0-11.551-27.883c-.904-.962-1.838-1.925-2.683-2.683a43.98 43.98 0 0 0-27.885-11.55c-1.313-.058-2.654 0-3.792 0zm1.896 3.121a2.34 2.34 0 0 1 2.333 2.333 2.34 2.34 0 0 1-2.333 2.333 2.34 2.34 0 0 1-2.333-2.333 2.34 2.34 0 0 1 2.333-2.333m2.013 8.283a32.6 32.6 0 0 1 19.63 8.137c.992.904 1.954 1.837 2.829 2.829a32.6 32.6 0 0 1 8.138 19.658c.117 1.342 0 2.683 0 3.996a32.6 32.6 0 0 1-8.138 19.629c-.904.992-1.838 1.954-2.829 2.829a32.6 32.6 0 0 1-19.66 8.137c-1.342.029-2.683.117-3.996 0a32.46 32.46 0 0 1-19.601-8.137h-.029a32 32 0 0 1-2.8-2.829 32.5 32.5 0 0 1-8.167-19.629c-.029-1.342-.117-2.654 0-3.967.146-7.525 3.879-14.729 8.138-19.687.904-.992 1.838-1.954 2.829-2.829a32.6 32.6 0 0 1 19.66-8.137c1.342-.117 2.683 0 3.996 0m-27.652 3.675c.904.904.904 2.392 0 3.296s-2.392.904-3.296 0-.904-2.392 0-3.296c1.021-.846 2.392-.846 3.296 0m54.574 0c.904.904.904 2.392 0 3.296s-2.392.904-3.296 0-.904-2.392 0-3.296c1.021-.846 2.392-.846 3.296 0m-33.602 1.896v2.537c.729.933 1.283 1.604 2.275 1.983a287 287 0 0 1-.817 10.996c2.158-.554 4.434-.583 6.446.029a291 291 0 0 1-.846-11.054c2.304-.612 2.275-2.508 2.275-4.492a30.3 30.3 0 0 0-9.334 0zm-11.172 4.608a28.3 28.3 0 0 0-6.592 6.592l1.808 1.808c1.167.146 2.042.233 3.004-.204a291 291 0 0 1 7.205 8.371 12.03 12.03 0 0 1 4.579-4.55 257 257 0 0 1-8.401-7.204c.525-.904.379-1.954.204-3.004zm31.677 0-1.808 1.808c-.204 1.167-.233 2.012.175 3.004a256 256 0 0 1-8.371 7.204 12.03 12.03 0 0 1 4.55 4.579c2.363-2.887 4.813-5.687 7.205-8.4.933.496 1.954.379 3.004.204l1.808-1.808a28.2 28.2 0 0 0-6.563-6.592zm32.902 15.137a50.9 50.9 0 0 1 0 14.583h4.638c.438-1.312.583-2.742.671-3.996 1.75.875 4.142 1.371 6.621 1.371 5.163 0 9.334-2.1 9.334-4.667s-4.171-4.667-9.334-4.667c-2.479 0-4.871.496-6.621 1.371-.029-1.371-.292-2.625-.671-3.996zm-102.11.029a18 18 0 0 0-.7 3.967c-1.756-.875-4.127-1.342-6.592-1.342-5.154 0-9.334 2.1-9.334 4.667s4.18 4.667 9.334 4.667c2.473 0 4.845-.496 6.592-1.371.044 1.371.327 2.625.7 3.996h4.609c-.694-4.987-.729-9.946 0-14.583zm53.37.554a6.65 6.65 0 1 0 0 13.416 6.67 6.67 0 1 0 0-13.416m24.502 2.042c-.933.729-1.604 1.283-1.983 2.275a287 287 0 0 1-10.997-.817c.554 2.187.554 4.433 0 6.446 3.675-.35 7.35-.642 10.997-.846.292 1.021 1.108 1.662 1.983 2.275h2.538a30.3 30.3 0 0 0 0-9.333zm-51.541.029c-.496 3.179-.438 6.358 0 9.333h2.538c.904-.729 1.633-1.254 1.954-2.275 3.646.175 7.321.467 11.026.817-.583-2.187-.583-4.433-.029-6.446-3.675.35-7.38.612-10.997.817-.263-1.021-1.108-1.662-1.954-2.246zm65.6 2.304a2.34 2.34 0 0 1 2.333 2.333 2.34 2.34 0 0 1-2.333 2.333 2.34 2.34 0 0 1-2.333-2.333 2.34 2.34 0 0 1 2.333-2.333m-77.121.029a2.34 2.34 0 0 1 2.333 2.333 2.34 2.34 0 0 1-2.333 2.333 2.34 2.34 0 0 1-2.333-2.333 2.34 2.34 0 0 1 2.333-2.333m48.974 8.166a12.03 12.03 0 0 1-4.579 4.55 257 257 0 0 1 8.401 7.204c-.525.904-.379 1.954-.204 3.004l1.808 1.808a28.3 28.3 0 0 0 6.592-6.592l-1.808-1.808c-1.167-.146-2.042-.233-3.004.204a291 291 0 0 1-7.205-8.371zm-20.826 0a294 294 0 0 1-7.205 8.371c-.904-.525-1.954-.379-2.975-.204l-1.838 1.808a26.8 26.8 0 0 0 6.621 6.592l1.808-1.808c.146-1.167.233-2.042-.204-3.004a292 292 0 0 1 8.371-7.204 12.24 12.24 0 0 1-4.579-4.55zm7.175 5.629a291 291 0 0 1 .846 11.054c-1.021.233-1.692 1.108-2.275 1.954v2.537c3.209.496 6.359.467 9.334 0V380.5c-.729-.933-1.283-1.604-2.275-1.983.204-3.617.467-7.321.817-10.996-2.246.379-4.609.496-6.446-.029zm-22.372 14.146c.904.904.904 2.392 0 3.296s-2.392.904-3.296 0-.904-2.392 0-3.296c1.021-.875 2.392-.875 3.296 0m54.545 0c.904.904.904 2.392 0 3.296s-2.392.904-3.296 0-.904-2.392 0-3.296c1.021-.875 2.421-.875 3.296 0m10.676 3.675a49.3 49.3 0 0 1-10.296 10.296l3.267 3.296c1.225-.642 2.333-1.517 3.325-2.333.613 1.867 1.954 3.879 3.704 5.629 3.646 3.646 8.051 5.104 9.888 3.296 1.808-1.837.35-6.242-3.296-9.887-1.75-1.75-3.763-3.092-5.63-3.704.933-1.021 1.633-2.1 2.333-3.325zm-79.222 0-3.267 3.267c.671 1.196 1.488 2.392 2.333 3.325-1.867.612-3.879 1.954-5.65 3.704-3.637 3.646-5.11 8.05-3.296 9.887 1.82 1.837 6.262.35 9.909-3.296 1.75-1.75 3.092-3.762 3.704-5.629 1.021.933 2.1 1.633 3.325 2.333l3.267-3.267a49.5 49.5 0 0 1-10.326-10.325zm39.611 6.912a2.34 2.34 0 0 1 2.333 2.333 2.34 2.34 0 0 1-2.333 2.333 2.34 2.34 0 0 1-2.333-2.333 2.34 2.34 0 0 1 2.333-2.333m-7.292 12.541v4.608c1.313.408 2.742.612 3.996.7-.875 1.75-1.371 4.112-1.371 6.592 0 5.162 2.1 9.333 4.667 9.333s4.667-4.171 4.667-9.333c0-2.479-.496-4.842-1.371-6.592 1.371-.058 2.625-.321 3.996-.7v-4.637c-4.988.729-9.946.7-14.584.029"/></svg>