<svg xmlns="http://www.w3.org/2000/svg" xml:space="preserve" width="512" height="512"><path fill="#392816" stroke="#704f2b" stroke-miterlimit="50" stroke-width="20.331" d="M10.166 10.166h491.669v491.669H10.166z"/><g style="fill:#0f0"><path d="M73.562 56.005q-.466-.008-.93.006c-3.858.115-7.694 1.377-10.812 3.824-7.127 5.594-7.8 15.26-1.504 21.594 4.17 4.195 10.352 5.857 16.123 4.885l54.9 55.225-47.814 37.53 22.959 23.095c9.198-18.023 21.126-33.302 35.527-46.094l6.559 30.523c23.818-5.305 47.303-8.911 70.59-10.86l-22.698-22.832-36.697-10.527c16.248-10.88 34.87-19.374 55.645-25.703l-22.963-23.098-47.812 37.529-54.98-55.305c1.7-4.921.587-10.484-3.53-14.625-3.32-3.34-7.916-5.085-12.562-5.168zm364.879 0c-4.646.084-9.24 1.829-12.56 5.168-4.117 4.14-5.234 9.704-3.534 14.627l-54.98 55.303-47.811-37.53-22.96 23.099c20.774 6.329 39.393 14.822 55.644 25.7l-36.698 10.529-22.074 22.203c23.455 1.57 46.86 4.813 70.355 9.666l6.168-28.701c14.403 12.792 26.33 28.07 35.529 46.094l22.957-23.094-47.814-37.531 54.9-55.225c5.77.972 11.954-.69 16.125-4.885 6.293-6.333 5.619-16-1.506-21.594-3.118-2.446-6.953-3.712-10.811-3.826a20 20 0 0 0-.932-.004zM261.48 189.698c-37.551-.083-75.432 4.409-114.508 13.576-1.942 76.288 32.734 176.575 112.455 219.215 3.56-1.912 7.012-3.994 10.41-6.154A100 100 0 0 1 256 366a100 100 0 0 1 110.848-99.39c5.07-21.857 7.47-43.49 7.012-63.345-37.732-8.853-74.904-13.486-112.38-13.568zM150.255 319.167 67.8 402.11 56.22 456l58.758-16.862 65.012-65.396c-12.207-16.96-22.067-35.451-29.734-54.574zm295.563 90.473a100 100 0 0 1-28.756 35.248L455.78 456l-9.963-46.361ZM356 324.235c-38.64.005-70.001 31.374-70 41.789 0 10.415 31.36 41.747 70 41.742s70-31.347 70-41.762c-.001-10.415-31.36-41.775-70-41.77zm0 15.266c14.636 0 26.5 11.864 26.5 26.5s-11.864 26.5-26.5 26.5-26.5-11.864-26.5-26.5 11.864-26.5 26.5-26.5"/><path d="M356 276c-49.705 0-90 40.295-90 90 0 49.707 40.295 90 90 90 49.707 0 90-40.293 90-90 0-49.705-40.293-90-90-90m0 20c38.66 0 70 31.34 70 70s-31.34 70-70 70-70-31.34-70-70 31.34-70 70-70"/></g></svg>