<svg xmlns="http://www.w3.org/2000/svg" height="512" width="512" fill="#0f0" xmlns:v="https://vecta.io/nano"><path d="M73.561 56.004c-.31-.006-.621-.003-.93.006-3.858.115-7.694 1.377-10.812 3.824-7.127 5.594-7.799 15.261-1.504 21.594 4.171 4.195 10.352 5.857 16.123 4.885l54.9 55.225-47.814 37.531 22.959 23.094c9.198-18.023 21.126-33.302 35.527-46.094l6.559 30.523c23.818-5.305 47.303-8.911 70.59-10.859L196.461 152.9l-36.697-10.527c16.248-10.88 34.87-19.374 55.645-25.703l-22.963-23.098-47.812 37.529-54.979-55.305c1.699-4.921.586-10.484-3.531-14.625-3.32-3.34-7.916-5.085-12.562-5.168zm364.879 0c-4.646.084-9.239 1.829-12.559 5.168-4.118 4.141-5.235 9.704-3.535 14.627l-54.979 55.303-47.812-37.529-22.959 23.098c20.773 6.329 39.392 14.822 55.643 25.701L315.541 152.9l-22.074 22.203c23.455 1.571 46.861 4.813 70.355 9.666l6.168-28.701c14.403 12.792 26.331 28.071 35.529 46.094l22.957-23.094-47.814-37.531 54.9-55.225c5.771.972 11.954-.689 16.125-4.885 6.293-6.333 5.619-16-1.506-21.594-3.118-2.446-6.953-3.712-10.811-3.826a20.29 20.29 0 0 0-.932-.004zM261.48 189.697c-37.551-.083-75.432 4.409-114.508 13.576-1.942 76.288 32.734 176.575 112.455 219.215 3.561-1.912 7.012-3.994 10.41-6.154A100 100 0 0 1 256 366a100 100 0 0 1 110.848-99.389c5.071-21.858 7.471-43.491 7.012-63.346-37.732-8.853-74.904-13.486-112.379-13.568zM150.254 319.166l-82.455 82.943L56.219 456l58.758-16.863 65.012-65.396c-12.207-16.96-22.067-35.451-29.734-54.574zm295.563 90.473a100 100 0 0 1-28.756 35.248L455.779 456l-9.963-46.361zM401.598 312.1l7.439 7.439L308.669 419.9l-7.44-7.439zm-72.283 53.802a26.693 26.693 0 0 1 35.668-25.132l13.209-13.209A71.936 71.936 0 0 0 356 324.138a72.957 72.957 0 0 0-25.703 4.753 82.403 82.403 0 0 0-11.827 5.658 89.228 89.228 0 0 0-10.596 7.25 94.921 94.921 0 0 0-8.955 8.067 102.382 102.382 0 0 0-6.903 7.717l-1.357 1.69-1.196 1.603-1.887 2.641-1.172 1.782-.403.628.403.628 1.172 1.782 1.887 2.641 1.196 1.603 1.357 1.691a102.382 102.382 0 0 0 6.903 7.717 94.925 94.925 0 0 0 8.955 8.067q2.175 1.726 4.51 3.353l18.485-18.485a26.633 26.633 0 0 1-1.554-9.021zm96.286-.635l-1.172-1.792-1.887-2.659-2.553-3.307a103.332 103.332 0 0 0-6.903-7.748 94.886 94.886 0 0 0-8.955-8.085 93.188 93.188 0 0 0-5.353-3.943l-18.071 18.071a26.689 26.689 0 0 1-34.802 34.802l-13.181 13.181A73.048 73.048 0 0 0 356 407.669a72.08 72.08 0 0 0 25.703-4.644 81.884 81.884 0 0 0 11.827-5.644 88.358 88.358 0 0 0 10.596-7.25 94.886 94.886 0 0 0 8.955-8.085 103.332 103.332 0 0 0 6.903-7.748l2.553-3.308 1.887-2.659 1.172-1.793.403-.634z"/><path d="M356 276a90 90 0 1 0 0 180 90 90 0 1 0 0-180zm0 20a70 70 0 1 1 0 140 70 70 0 1 1 0-140z"/></svg>