<svg xmlns="http://www.w3.org/2000/svg" height="512" width="512" fill="#0f0" xmlns:v="https://vecta.io/nano"><path d="M73.561 56.004c-.31-.006-.621-.003-.93.006-3.858.115-7.694 1.377-10.812 3.824-7.127 5.594-7.799 15.261-1.504 21.594 4.171 4.195 10.352 5.857 16.123 4.885l54.9 55.225-47.814 37.531 22.959 23.094c9.198-18.023 21.126-33.302 35.527-46.094l6.559 30.523c23.818-5.305 47.303-8.911 70.59-10.859L196.461 152.9l-36.697-10.527c16.248-10.88 34.87-19.374 55.645-25.703l-22.963-23.098-47.812 37.529-54.979-55.305c1.699-4.921.586-10.484-3.531-14.625-3.32-3.34-7.916-5.085-12.562-5.168zm364.879 0c-4.646.084-9.239 1.829-12.559 5.168-4.118 4.141-5.235 9.704-3.535 14.627l-54.979 55.303-47.812-37.529-22.959 23.098c20.773 6.329 39.392 14.822 55.643 25.701L315.541 152.9l-22.074 22.203c23.455 1.571 46.861 4.813 70.355 9.666l6.168-28.701c14.403 12.792 26.331 28.071 35.529 46.094l22.957-23.094-47.814-37.531 54.9-55.225c5.771.972 11.954-.689 16.125-4.885 6.293-6.333 5.619-16-1.506-21.594-3.118-2.446-6.953-3.712-10.811-3.826a20.29 20.29 0 0 0-.932-.004zM261.48 189.697c-37.551-.083-75.432 4.409-114.508 13.576-1.942 76.288 32.734 176.575 112.455 219.215 3.561-1.912 7.012-3.994 10.41-6.154A100 100 0 0 1 256 366a100 100 0 0 1 110.848-99.389c5.071-21.858 7.471-43.491 7.012-63.346-37.732-8.853-74.904-13.486-112.379-13.568zM150.254 319.166l-82.455 82.943L56.219 456l58.758-16.863 65.012-65.396c-12.207-16.96-22.067-35.451-29.734-54.574zm295.563 90.473a100 100 0 0 1-28.756 35.248L455.779 456l-9.963-46.361zM356 324.234c-38.64.005-70.001 31.374-70 41.789s31.36 41.747 70 41.742 70.001-31.347 70-41.762-31.36-41.775-70-41.77zm0 15.266c14.636 0 26.5 11.864 26.5 26.5s-11.864 26.5-26.5 26.5-26.5-11.864-26.5-26.5 11.864-26.5 26.5-26.5z"/><path d="M356 276c-49.706 0-90 40.294-90 90s40.294 90 90 90 90-40.294 90-90-40.294-90-90-90zm0 20c38.66 0 70 31.34 70 70s-31.34 70-70 70-70-31.34-70-70 31.34-70 70-70z"/></svg>