<svg xmlns="http://www.w3.org/2000/svg" xml:space="preserve" width="512" height="512" fill="#0f0"><path d="M243.11 455.595c-60.467-3.969-116.04-35.333-151.264-85.37-13.85-19.676-24.7-44.004-30.42-68.205-14.24-60.265-.151-122.757 38.674-171.54 5.635-7.08 18.301-20.202 25.415-26.328C152.88 80.588 186.87 64.53 221.783 58.67c13.597-2.283 18.86-2.69 34.544-2.669 16.69.022 24.094.706 38.891 3.593 54.788 10.69 103.681 45.27 132.696 93.85 31.36 52.507 36.796 117.5 14.606 174.651-14.003 36.065-37.712 66.825-69.328 89.948-36.623 26.784-84.326 40.556-130.082 37.553M129.203 368.09c4.22-18.859 13.274-37.863 24.71-51.868 4.765-5.836 15.635-16.115 21.458-20.29 6.013-4.312 14.606-9.28 21.24-12.279 4.667-2.11 5.454-2.279 10.454-2.255l5.407.026 6.908 3.677c11.935 6.352 23.269 9.196 36.647 9.196s24.712-2.844 36.646-9.196l6.909-3.677 5.406-.026c5-.024 5.787.146 10.453 2.255 6.636 3 15.229 7.967 21.241 12.279 5.823 4.175 16.693 14.454 21.459 20.29 11.435 14.005 20.489 33.01 24.71 51.868.758 3.389 1.527 6.145 1.709 6.124.588-.067 7.329-8.166 11.752-14.121 17.7-23.83 28.932-51.422 33.145-81.426 1.618-11.521 1.453-36.451-.317-47.926-5.889-38.173-22.705-71.53-49.642-98.467-34.749-34.75-80.207-52.764-129.179-51.188-44.875 1.444-85.817 19.24-117.764 51.188-26.934 26.935-43.72 60.226-49.648 98.467-1.128 7.273-1.326 11.019-1.326 25.082 0 14.117.196 17.796 1.34 25.184 4.251 27.437 14.315 52.703 29.825 74.881 4.52 6.463 14.023 18.279 14.748 18.337.181.015.95-2.746 1.709-6.135m118.413-89.74c-.496-.096-2.929-.5-5.407-.895-2.478-.396-7.346-1.63-10.818-2.742-27.2-8.718-47.448-31.375-53.56-59.93-1.717-8.026-1.862-22.728-.301-30.643 3.161-16.035 10.441-29.71 22.025-41.375 15.558-15.666 34.497-23.57 56.472-23.57 21.97 0 40.862 7.885 56.481 23.575 11.543 11.595 18.854 25.333 22.016 41.37 1.56 7.915 1.415 22.617-.302 30.644-7.2 33.64-33.722 58.43-67.682 63.261-3.789.539-16.673.747-18.924.306" style="fill:#0f0;fill-opacity:1;stroke-width:.60096"/></svg>