<svg xmlns="http://www.w3.org/2000/svg" style="height:512px;width:512px" viewBox="0 0 512 512"><path fill="url(#pattern)" d="M0 0h512v512H0z"/><path d="M379.609 139.572V300.82c8.752-3.644 17.153-8.367 25.634-12.608 2.996-1.497 8.024-2.967 9.9-5.906 1.913-3 .85-8.666.85-12.082V132.13c-8.11 1.442-15.048 7.153-23.154 8.627-4.254.773-8.908-1.095-13.23-1.185M365.55 299.166V136.265c-10.106-1.904-17.462-.29-27.288 2.356-2.59.698-7.312.942-9.073 3.207-1.587 2.04-.85 6.083-.85 8.494v22.327c0 25.114.827 50.126.827 75.249v20.673c0 2.7-.614 6.408.85 8.824 1.798 2.965 6.255 4.524 9.073 6.345 8.15 5.268 17.18 12.488 26.461 15.426m-33.076-2.48c7.496 36.32 17.773 72.34 26.77 108.325 3.796 15.187 9.179 30.798 11.268 46.307h1.653c1.916-13.023 6.872-26.176 10.4-38.865 7.113-25.588 14.145-51.224 20.927-76.903 3.039-11.504 8.158-23.696 9.192-35.557-7.908 3.292-15.492 7.542-23.154 11.373-2.799 1.4-7.316 2.734-9.072 5.488-1.71 2.68-.85 7.391-.85 10.427 0 8.049-.35 15.966-.902 23.98-2.06 29.923-6.54 60.124-6.54 90.134-3.274-10.353-1.82-22.336-2.556-33.076-1.507-22.013-1.83-44.19-3.92-66.153-.543-5.716-.14-11.627-.14-17.365 0-2.45.526-5.702-.499-7.997-1.257-2.818-5.291-4.467-7.77-6.02-7.459-4.67-16.214-12.08-24.807-14.098M299.398 89.13c3.892 8.174 13.978 12.138 19.616 19.03 4.092 5.004 5.116 12.914 6.845 19.008 9.63-1.297 20.095-7.318 29.77-6.781 8.14.45 16.803 3.032 24.806 4.63 3.4.68 7.26 2.012 10.75 1.573 11.331-1.427 21.94-9.187 33.077-11.826-.243-4.738-2.143-8.973-4.135-13.23 6.908-1.02 14.512-4.196 20.673-7.443-5.881-5.943-16.282-5.951-21.905-11.922-3.709-3.939-4.054-11.324-6.21-16.193-7.31 1.8-14.903 2.691-22.327 3.93-4.923.823-9.855 2.212-14.884 1.718-7.466-.735-14.922-2.825-22.327-4.06-2.723-.455-6.354-1.71-9.083-.948-6.138 1.71-9.542 11.022-14.897 14.47-3.32 2.138-7.8 2.656-11.577 3.6-6.038 1.51-12.014 3.612-18.192 4.444m-144.71 144.71v188.535c0 4.61-.48 9.535.564 14.058 1.483 6.43 5.988 11.258 12.667 12.23 2.392.348 5.037.293 7.442.096 10.151-.833 13.34-8.434 14.198-17.288.984-10.164.687-20.376.687-30.596V233.84zm-40.52-102.537-.826 1.654c1.044-.803 1.15-.574.827-1.654m52.096-69.858c-8.652 1.877-15.179 11.982-7.332 19.187 4.867 4.47 14.451 4.415 20.563 3.11 8.613-1.842 15.547-11.942 7.352-19.093-5.079-4.433-14.282-4.572-20.583-3.204m38.038 11.974c-.276 32.903-61.35 33.563-62.845.827-6.061.05-12.31 1.032-18.192 2.481 3.986 6.998 8.965 13.11 12.029 20.673 11.59 28.612 11.393 62.726 1.602 91.787-3.185 9.45-9.86 16.714-13.631 25.634 12.975 4.868 28.487 4.962 42.172 4.962 19.546 0 38.511-.291 57.884-3.084 11.262-1.623 25.903-3.2 34.59-11.243 7.19-6.658 10.742-17.02 13.371-26.192 6.366-22.207 5.984-48.24-.848-70.287-2.872-9.27-7.022-19.145-14.864-25.312-5.11-4.019-11.193-4.48-17.364-5.488-11.262-1.84-22.69-2.668-33.904-4.758m-76.076 51.269c-5.16.675-8.83 4.111-13.23 6.615 3.063-5.503 10.016-12.496 10.2-19.019.123-4.379-2.326-9.404-4.21-13.23-5.798-11.77-17.235-25.937-30.657-14.447-7.345 6.288-11.567 16.96-14.197 26.023-6.48 22.328-6.59 47.114-.241 69.461 3.092 10.88 8.512 25.893 20.086 30.315 10.952 4.184 19.887-7.811 24.138-16.257 10.237-20.342 12.224-47.311 8.111-69.461" style="fill:#0f0;stroke:none;stroke-width:.826912;fill-opacity:1"/></svg>